<?xml version="1.0" encoding="UTF-8"?>
<svg id="Layer_2" data-name="Layer 2" xmlns="http://www.w3.org/2000/svg" xmlns:xlink="http://www.w3.org/1999/xlink" viewBox="0 0 652.53 265.46">
  <defs>
    <style>
      .cls-1 {
        fill: url(#linear-gradient-2);
      }

      .cls-2 {
        letter-spacing: 0em;
      }

      .cls-3 {
        letter-spacing: 0em;
      }

      .cls-4 {
        font-family: Chillax-Medium, Chillax;
        font-size: 39.37px;
        font-weight: 500;
      }

      .cls-4, .cls-5 {
        fill: #fff;
      }

      .cls-6 {
        letter-spacing: 0em;
      }

      .cls-7 {
        letter-spacing: 0em;
      }

      .cls-8 {
        letter-spacing: 0em;
      }

      .cls-9 {
        letter-spacing: .01em;
      }

      .cls-10 {
        fill: url(#linear-gradient);
      }

      .cls-11 {
        letter-spacing: -.05em;
      }
    </style>
    <linearGradient id="linear-gradient" x1="498.68" y1="98.43" x2="652.53" y2="98.43" gradientUnits="userSpaceOnUse">
      <stop offset="0" stop-color="#e87cd9"/>
      <stop offset=".29" stop-color="#e967c1"/>
      <stop offset=".9" stop-color="#ed3385"/>
      <stop offset="1" stop-color="#ee2a7b"/>
    </linearGradient>
    <linearGradient id="linear-gradient-2" x1="500.47" y1="44.45" x2="569.09" y2="44.45" xlink:href="#linear-gradient"/>
  </defs>
  <g id="HQ">
    <g>
      <path class="cls-10" d="M652.16,181.62c-4.53-18.4-18.01-51.26-57.71-85.18,39.63-33.55,53.14-64.45,57.69-81.8,1.77-6.74-2.71-13.28-9.37-14.35v-.28h-61.93c-2.85,0-5.17,2.31-5.17,5.17s2.31,5.17,5.17,5.17h38.91c4.59,0,7.71,4.66,5.97,8.91l-.07.17c-1,2.43-3.37,4.02-6.01,4.02h-38.8c-2.85,0-5.17,2.31-5.17,5.17s2.31,5.17,5.17,5.17h25.56c5.29,0,8.36,6,5.25,10.29l-.12.16c-1.21,1.67-3.18,2.65-5.24,2.65h-25.45c-2.85,0-5.17,2.31-5.17,5.17s2.31,5.17,5.17,5.17h5.04c5.83,0,8.72,7.09,4.52,11.13-6.24,6.03-13.48,12.29-21.88,18.68-49.45,37.6-64.77,75.42-69.51,95.34-1.61,6.74,2.98,13.16,9.58,14.26v.26h61.93c2.85,0,5.17-2.31,5.17-5.17s-2.31-5.17-5.17-5.17h-39.39c-4.5,0-7.64-4.44-6.11-8.67.02-.05.03-.09.05-.14.93-2.56,3.38-4.29,6.11-4.29h39.34c2.85,0,5.17-2.31,5.17-5.17s-2.31-5.17-5.17-5.17h-27.53c-5.17,0-8.23-5.73-5.4-10.07.03-.05.06-.09.09-.14,1.19-1.81,3.24-2.89,5.41-2.89h27.43c2.85,0,5.17-2.31,5.17-5.17s-2.31-5.17-5.17-5.17h-8.79c-5.73,0-8.63-6.85-4.67-10.99,5.35-5.59,11.52-11.36,18.61-17.19,26.84,22.07,40.35,43.19,47.01,57.49,3.49,7.5,5.49,13.9,6.64,18.66,1.49,6.22,7.65,10.32,14.24,8.81,6.5-1.49,10.2-8.36,8.61-14.84Z"/>
      <path class="cls-1" d="M550.42,88.86c3.81-3.28,7.87-6.56,12.18-9.84,2.25-1.71,4.4-3.41,6.48-5.1-32.22-28.88-42.17-54.07-45.23-66.24-1.15-4.57-5.37-7.71-10.08-7.65l-3.08.04c-6.63,0-11.49,6.2-9.93,12.65,3.8,15.72,15.24,44.33,49.66,76.15Z"/>
    </g>
    <path class="cls-5" d="M12.76,196.6c-6.19-.59-10.85-6.39-10.54-12.2-.03-9.84,0-39.08,0-55.9C.1,94.15,13.33,63.82,51.76,61.29c8.57-.22,23.04-.74,27.17,8.12,2.46,5.55,1.26,13.42-4.08,16.47-5.26,2.99-11.78.77-17.56,1.22-16.97.33-27.14,13.29-27.7,29.92-.31,17.78-.02,42.72-.12,59.96-.15,4.11.39,7.2-.43,10.96-1.76,6.98-9.17,9.81-16.09,8.69l-.19-.03Z"/>
    <path class="cls-5" d="M384.92,147.07c-.24-11.75,0-28.04-.09-42.63-.21-4.75.65-8.84-1.06-13.16-3.94-9.29-13.88-6.07-20.73-10.46-5.68-3.75-5.95-13.42-.58-17.56,2.97-2.45,7.29-2.82,11.03-3.53,16.58-3.05,8.15-17.88,13.43-28.17,3.66-6.06,12.43-6.95,18.5-4.31,9.43,4.22,5.7,15.77,7.8,23.87,2.84,10.1,13.27,9.05,21.66,8.99,7.38.37,18.33-1.19,23.44,1.87,8.33,4.62,6.98,17.64-1.89,20.56-6.08,1.84-15.8.67-22.85.98-7,.07-11.11-.38-15.03,1.95-4.88,2.8-6.6,8.35-6.19,13.67,0,9.41,0,29,0,40.5-.77,14.66,5.06,29.54,21.15,32.02,9.86,2.72,25.8-6.09,29.99,7.33,3.33,14.41-7.91,17.54-18.71,17.8-31.43,1.17-59.6-19.58-59.87-49.6v-.15Z"/>
    <text class="cls-4" transform="translate(0 255.03)"><tspan x="0" y="0">U</tspan><tspan class="cls-7" x="28.26" y="0">n</tspan><tspan class="cls-3" x="52.75" y="0">v</tspan><tspan x="73.81" y="0">e</tspan><tspan class="cls-8" x="96.44" y="0">i</tspan><tspan class="cls-2" x="107.27" y="0">ling hope </tspan><tspan class="cls-8" x="298.31" y="0">f</tspan><tspan x="314.01" y="0">or </tspan><tspan class="cls-11" x="362.39" y="0">R</tspan><tspan x="386.92" y="0">e</tspan><tspan class="cls-8" x="409.55" y="0">t</tspan><tspan class="cls-6" x="427.07" y="0">t </tspan><tspan class="cls-7" x="456" y="0">S</tspan><tspan class="cls-8" x="479.03" y="0">y</tspan><tspan class="cls-2" x="503.71" y="0">nd</tspan><tspan class="cls-9" x="553.51" y="0">r</tspan><tspan x="567.56" y="0">ome</tspan></text>
    <path class="cls-5" d="M266.84,147.07c-.24-11.75,0-28.04-.09-42.63-.21-4.75.65-8.84-1.06-13.16-3.94-9.29-13.88-6.07-20.73-10.46-5.68-3.75-5.95-13.42-.58-17.56,2.97-2.45,7.29-2.82,11.03-3.53,16.58-3.05,8.15-17.88,13.43-28.17,3.66-6.06,12.43-6.95,18.5-4.31,9.43,4.22,5.7,15.77,7.8,23.87,2.84,10.1,13.27,9.05,21.66,8.99,7.38.37,18.33-1.19,23.44,1.87,8.33,4.62,6.98,17.64-1.89,20.56-6.08,1.84-15.8.67-22.85.98-7,.07-11.11-.38-15.03,1.95-4.88,2.8-6.6,8.35-6.19,13.67,0,9.41,0,29,0,40.5-.77,14.66,5.06,29.54,21.15,32.02,9.86,2.72,25.8-6.09,29.99,7.33,3.33,14.41-7.91,17.54-18.71,17.8-31.43,1.17-59.6-19.58-59.87-49.6v-.15Z"/>
    <path class="cls-5" d="M96.48,129.93c0-36.44,26.1-66.16,64.09-66.16,34.77,0,57.58,22.85,61.44,53.6.06.46.11,1.24.16,2.22.48,9.54-7.09,17.58-16.65,17.58h-84.23c2.84,21.71,19.38,36.96,42.12,36.96,12.6,0,24.17-4.44,32.09-13.58,3.32-3.83,8.69-5.13,13.19-2.82l.88.45c6.05,3.1,7.64,10.97,3.39,16.28-11.73,14.66-29.05,22.41-49.31,22.41-38.51,0-67.19-27.91-67.19-66.93ZM197.01,120.63c-1.03-20.16-15.76-33.85-36.7-33.85s-35.41,14.99-37.99,33.85h74.69Z"/>
  </g>
</svg>